<svg t="1664421622710" class="icon" viewBox="0 0 1024 1024" version="1.1" xmlns="http://www.w3.org/2000/svg" p-id="4332" width="128" height="128"><path d="M288.4096 562.65728l-0.9216-0.04096a10.33216 10.33216 0 0 1-1.4336-0.23552l-0.31744-0.08192a9.5232 9.5232 0 0 1-2.87744-1.30048 7.97696 7.97696 0 0 1-0.58368-0.39936l-0.32768-0.26624a8.22272 8.22272 0 0 1-1.20832-1.16736l-0.08192-0.1024a10.24 10.24 0 0 1-0.53248-0.6656l-0.14336-0.2048-83.64032-122.33728a10.24 10.24 0 0 1 16.11776-12.57472l0.79872 1.024 63.24224 92.49792c2.19136-119.69536 81.95072-226.3552 199.63904-260.4544 129.62816-37.55008 267.42784 23.92064 326.10304 145.44896 58.6752 121.53856 21.0944 267.6736-88.94464 345.81504-110.0288 78.15168-260.38272 65.50528-355.80928-29.93152a10.24 10.24 0 0 1 14.47936-14.47936c88.3712 88.3712 227.59424 100.07552 329.472 27.71968 101.888-72.36608 136.68352-207.67744 82.36032-320.21504-54.33344-112.5376-181.93408-169.45152-301.96736-134.68672-113.32608 32.82944-188.68224 138.3424-184.75008 254.52544l95.20128-87.52128a10.24 10.24 0 0 1 13.53728-0.28672l0.93184 0.89088a10.24 10.24 0 0 1 0.28672 13.53728l-0.89088 0.93184-110.77632 101.85728-0.21504 0.2048a10.24 10.24 0 0 1-0.55296 0.43008l0.768-0.63488a10.37312 10.37312 0 0 1-5.70368 2.63168h-0.06144l-0.78848 0.06144-0.3584 0.01024h-0.0512z" p-id="4333"></path></svg>