<svg t="1664421652931" class="icon" viewBox="0 0 1024 1024" version="1.1" xmlns="http://www.w3.org/2000/svg" p-id="3397" width="128" height="128"><path d="M558.10048 256.34816c117.68832 34.0992 197.44768 140.75904 199.63904 260.4544l63.24224-92.49792a10.24 10.24 0 0 1 17.57184 10.4448l-0.65536 1.10592-83.64032 122.33728-0.17408 0.24576a10.24 10.24 0 0 1-0.45056 0.57344l0.6144-0.8192a10.36288 10.36288 0 0 1-1.88416 2.08896l-0.34816 0.27648a8.192 8.192 0 0 1-0.62464 0.44032l-0.3072 0.18432a7.89504 7.89504 0 0 1-1.04448 0.55296 9.3184 9.3184 0 0 1-2.33472 0.74752l-0.32768 0.0512a8.88832 8.88832 0 0 1-1.88416 0.12288 9.96352 9.96352 0 0 1-0.86016-0.07168l-0.22528-0.02048a10.21952 10.21952 0 0 1-0.70656-0.12288l0.93184 0.14336a10.3424 10.3424 0 0 1-4.8128-1.85344l-0.256-0.19456a10.25024 10.25024 0 0 1-0.45056-0.36864l-0.24576-0.2048-110.77632-101.86752a10.24 10.24 0 0 1 12.86144-15.88224l1.00352 0.80896 95.20128 87.53152c3.93216-116.18304-71.41376-221.696-184.75008-254.53568-120.03328-34.7648-247.63392 22.14912-301.96736 134.68672-54.3232 112.5376-19.52768 247.84896 82.36032 320.2048 101.888 72.36608 241.11104 60.66176 329.472-27.70944a10.24 10.24 0 0 1 14.47936 14.47936c-95.42656 95.4368-245.78048 108.0832-355.80928 29.93152-110.0288-78.14144-147.61984-224.27648-88.94464-345.8048 58.6752-121.5488 196.47488-183.00928 326.10304-145.4592z" p-id="3398"></path></svg>